<svg width="308" height="150" viewBox="0 0 308 150" fill="none" xmlns="http://www.w3.org/2000/svg">
<path d="M75 150C116.421 150 150 116.421 150 75C150 33.5786 116.421 0 75 0C33.5786 0 0 33.5786 0 75C0 116.421 33.5786 150 75 150Z" fill="#663399"/>
<path d="M33.2143 116.786C21.9643 105.536 16.0714 90.5357 16.0714 76.0714L74.4643 133.929C59.4643 133.393 44.4643 128.036 33.2143 116.786ZM87.8571 132.321L17.6786 62.1429C23.5714 35.8929 47.1429 16.0714 75 16.0714C94.8214 16.0714 111.964 25.7143 122.679 40.1786L114.643 47.1429C105.536 34.8214 91.0714 26.7857 75 26.7857C54.1071 26.7857 36.4286 40.1786 29.4643 58.9286L91.0714 120.536C106.607 115.179 118.393 101.786 122.143 85.7143H96.4286V75H133.929C133.929 102.857 114.107 126.429 87.8571 132.321Z" fill="white"/>
<path d="M201.576 131.517C218.78 131.517 232.726 108.228 232.726 79.5C232.726 50.7716 218.78 27.4827 201.576 27.4827C184.373 27.4827 170.427 50.7716 170.427 79.5C170.427 108.228 184.373 131.517 201.576 131.517Z" fill="#F5F8FA"/>
<path d="M201.576 134.455C182.463 134.455 167.49 110.316 167.49 79.5C167.49 48.6836 182.463 24.5452 201.576 24.5452C220.69 24.5452 235.663 48.6836 235.663 79.5C235.663 110.316 220.69 134.455 201.576 134.455ZM201.576 30.4202C186.019 30.4202 173.365 52.4358 173.365 79.5C173.365 106.564 186.019 128.58 201.576 128.58C217.133 128.58 229.788 106.564 229.788 79.5C229.788 52.4358 217.133 30.4202 201.576 30.4202V30.4202Z" fill="#E1E8ED"/>
<path d="M192.827 98.9266C203.556 98.9266 212.253 90.229 212.253 79.5C212.253 68.7709 203.556 60.0733 192.827 60.0733C182.097 60.0733 173.4 68.7709 173.4 79.5C173.4 90.229 182.097 98.9266 192.827 98.9266Z" fill="#8899A6"/>
<path d="M192.827 93.4629C200.538 93.4629 206.789 87.2115 206.789 79.5C206.789 71.7885 200.538 65.5371 192.827 65.5371C185.115 65.5371 178.864 71.7885 178.864 79.5C178.864 87.2115 185.115 93.4629 192.827 93.4629Z" fill="#292F33"/>
<path d="M197.985 75.0702C201.069 75.0702 203.57 72.5697 203.57 69.4851C203.57 66.4005 201.069 63.8999 197.985 63.8999C194.9 63.8999 192.4 66.4005 192.4 69.4851C192.4 72.5697 194.9 75.0702 197.985 75.0702Z" fill="#F5F8FA"/>
<path d="M273.667 131.517C290.87 131.517 304.816 108.228 304.816 79.5C304.816 50.7716 290.87 27.4827 273.667 27.4827C256.463 27.4827 242.517 50.7716 242.517 79.5C242.517 108.228 256.463 131.517 273.667 131.517Z" fill="#F5F8FA"/>
<path d="M273.667 134.455C254.553 134.455 239.58 110.316 239.58 79.5C239.58 48.6836 254.553 24.5452 273.667 24.5452C292.78 24.5452 307.757 48.6836 307.757 79.5C307.757 110.316 292.78 134.455 273.667 134.455ZM273.667 30.4202C258.11 30.4202 245.455 52.4397 245.455 79.5C245.455 106.564 258.11 128.58 273.667 128.58C289.224 128.58 301.882 106.564 301.882 79.5C301.882 52.4358 289.224 30.4202 273.667 30.4202V30.4202Z" fill="#E1E8ED"/>
<path d="M264.917 98.9266C275.646 98.9266 284.343 90.229 284.343 79.5C284.343 68.7709 275.646 60.0733 264.917 60.0733C254.188 60.0733 245.49 68.7709 245.49 79.5C245.49 90.229 254.188 98.9266 264.917 98.9266Z" fill="#8899A6"/>
<path d="M264.917 93.4629C272.628 93.4629 278.88 87.2115 278.88 79.5C278.88 71.7885 272.628 65.5371 264.917 65.5371C257.205 65.5371 250.954 71.7885 250.954 79.5C250.954 87.2115 257.205 93.4629 264.917 93.4629Z" fill="#292F33"/>
<path d="M270.075 75.0702C273.16 75.0702 275.66 72.5697 275.66 69.4851C275.66 66.4005 273.16 63.8999 270.075 63.8999C266.99 63.8999 264.49 66.4005 264.49 69.4851C264.49 72.5697 266.99 75.0702 270.075 75.0702Z" fill="#F5F8FA"/>
</svg>
